<svg xmlns="http://www.w3.org/2000/svg" xmlns:xlink="http://www.w3.org/1999/xlink" contentStyleType="text/css" data-diagram-type="CLASS" height="1106px" preserveAspectRatio="none" style="width:846px;height:1106px;background:#E6F2FF;" version="1.1" viewBox="0 0 846 1106" width="846px" zoomAndPan="magnify"><title>MyHealthMate - MongoDB Schema Overview</title><defs/><g><rect fill="#E6F2FF" height="1106" style="stroke:none;stroke-width:1;" width="846" x="0" y="0"/><g class="title" data-source-line="1"><text fill="#000000" font-family="sans-serif" font-size="14" font-weight="bold" lengthAdjust="spacing" textLength="351.1553" x="240.7217" y="22.9951">MyHealthMate - MongoDB Schema Overview</text></g><!--class User--><g class="entity" data-entity="User" data-source-line="6" data-uid="ent0002" id="entity_User"><rect fill="#F1F1F1" height="276.1563" rx="2.5" ry="2.5" style="stroke:#181818;stroke-width:0.5;" width="363.1074" x="133" y="44.2969"/><ellipse cx="294.3486" cy="60.2969" fill="#ADD1B2" rx="11" ry="11" style="stroke:#181818;stroke-width:1;"/><path d="M297.3174,65.9375 Q296.7393,66.2344 296.0986,66.375 Q295.458,66.5313 294.7549,66.5313 Q292.2549,66.5313 290.9268,64.8906 Q289.6143,63.2344 289.6143,60.1094 Q289.6143,56.9844 290.9268,55.3281 Q292.2549,53.6719 294.7549,53.6719 Q295.458,53.6719 296.0986,53.8281 Q296.7549,53.9844 297.3174,54.2813 L297.3174,57 Q296.6924,56.4219 296.0986,56.1563 Q295.5049,55.875 294.8799,55.875 Q293.5361,55.875 292.8486,56.9531 Q292.1611,58.0156 292.1611,60.1094 Q292.1611,62.2031 292.8486,63.2813 Q293.5361,64.3438 294.8799,64.3438 Q295.5049,64.3438 296.0986,64.0781 Q296.6924,63.7969 297.3174,63.2188 L297.3174,65.9375 Z " fill="#000000"/><text fill="#000000" font-family="sans-serif" font-size="14" lengthAdjust="spacing" textLength="31.9102" x="314.8486" y="65.1436">User</text><line style="stroke:#181818;stroke-width:0.5;" x1="134" x2="495.1074" y1="76.2969" y2="76.2969"/><text fill="#000000" font-family="sans-serif" font-size="14" lengthAdjust="spacing" textLength="184.5908" x="139" y="93.292">+_id : ObjectId &#171;required&#187;</text><text fill="#000000" font-family="sans-serif" font-size="14" lengthAdjust="spacing" textLength="243.5029" x="139" y="109.5889">+email : String &#171;unique, required&#187;</text><text fill="#000000" font-family="sans-serif" font-size="14" lengthAdjust="spacing" textLength="214.6963" x="139" y="125.8857">+password : String &#171;required&#187;</text><text fill="#000000" font-family="sans-serif" font-size="14" lengthAdjust="spacing" textLength="275.1328" x="139" y="142.1826">+username : String &#171;unique, required&#187;</text><text fill="#000000" font-family="sans-serif" font-size="14" lengthAdjust="spacing" textLength="210.8682" x="139" y="158.4795">+fullName : String &#171;required&#187;</text><text fill="#000000" font-family="sans-serif" font-size="14" lengthAdjust="spacing" textLength="321.1455" x="139" y="174.7764">+role : String &#171;enum: patient, doctor, admin&#187;</text><text fill="#000000" font-family="sans-serif" font-size="14" lengthAdjust="spacing" textLength="253.7363" x="139" y="191.0732">+isActive : Boolean &lt;Default: true&gt;</text><text fill="#000000" font-family="sans-serif" font-size="14" lengthAdjust="spacing" textLength="198.0439" x="139" y="207.3701">+phone : String &lt;Optional&gt;</text><text fill="#000000" font-family="sans-serif" font-size="14" lengthAdjust="spacing" textLength="351.1074" x="139" y="223.667">+gender : String &lt;Optional: male, female, other&gt;</text><text fill="#000000" font-family="sans-serif" font-size="14" lengthAdjust="spacing" textLength="172.252" x="139" y="239.9639">+dob : Date &lt;Optional&gt;</text><text fill="#000000" font-family="sans-serif" font-size="14" lengthAdjust="spacing" textLength="199.5" x="139" y="256.2607">+avatar : String &lt;Optional&gt;</text><text fill="#000000" font-family="sans-serif" font-size="14" lengthAdjust="spacing" textLength="289.748" x="139" y="272.5576">+createdAt : Timestamp &lt;Default: now&gt;</text><text fill="#000000" font-family="sans-serif" font-size="14" lengthAdjust="spacing" textLength="290.9648" x="139" y="288.8545">+updatedAt : Timestamp &lt;Default: null&gt;</text><text fill="#000000" font-family="sans-serif" font-size="14" lengthAdjust="spacing" textLength="263.4639" x="139" y="305.1514">+_destroy : Boolean &lt;Default: false&gt;</text><line style="stroke:#181818;stroke-width:0.5;" x1="134" x2="495.1074" y1="312.4531" y2="312.4531"/></g><!--class Patient--><g class="entity" data-entity="Patient" data-source-line="24" data-uid="ent0003" id="entity_Patient"><rect fill="#F1F1F1" height="259.8594" rx="2.5" ry="2.5" style="stroke:#181818;stroke-width:0.5;" width="363.1074" x="7" y="397.4569"/><ellipse cx="159.6157" cy="413.4569" fill="#ADD1B2" rx="11" ry="11" style="stroke:#181818;stroke-width:1;"/><path d="M162.5845,419.0975 Q162.0063,419.3944 161.3657,419.535 Q160.7251,419.6913 160.022,419.6913 Q157.522,419.6913 156.1938,418.0506 Q154.8813,416.3944 154.8813,413.2694 Q154.8813,410.1444 156.1938,408.4881 Q157.522,406.8319 160.022,406.8319 Q160.7251,406.8319 161.3657,406.9881 Q162.022,407.1444 162.5845,407.4413 L162.5845,410.16 Q161.9595,409.5819 161.3657,409.3163 Q160.772,409.035 160.147,409.035 Q158.8032,409.035 158.1157,410.1131 Q157.4282,411.1756 157.4282,413.2694 Q157.4282,415.3631 158.1157,416.4413 Q158.8032,417.5038 160.147,417.5038 Q160.772,417.5038 161.3657,417.2381 Q161.9595,416.9569 162.5845,416.3788 L162.5845,419.0975 Z " fill="#000000"/><text fill="#000000" font-family="sans-serif" font-size="14" lengthAdjust="spacing" textLength="49.376" x="180.1157" y="418.3036">Patient</text><line style="stroke:#181818;stroke-width:0.5;" x1="8" x2="369.1074" y1="429.4569" y2="429.4569"/><text fill="#000000" font-family="sans-serif" font-size="14" lengthAdjust="spacing" textLength="184.5908" x="13" y="446.452">+_id : ObjectId &#171;required&#187;</text><text fill="#000000" font-family="sans-serif" font-size="14" lengthAdjust="spacing" textLength="301.8682" x="13" y="462.7489">+userId : ObjectId &#171;ref: User._id, required&#187;</text><text fill="#000000" font-family="sans-serif" font-size="14" lengthAdjust="spacing" textLength="210.8682" x="13" y="479.0457">+fullName : String &#171;required&#187;</text><text fill="#000000" font-family="sans-serif" font-size="14" lengthAdjust="spacing" textLength="192.8418" x="13" y="495.3426">+email : String &lt;Optional&gt;</text><text fill="#000000" font-family="sans-serif" font-size="14" lengthAdjust="spacing" textLength="198.0439" x="13" y="511.6395">+phone : String &lt;Optional&gt;</text><text fill="#000000" font-family="sans-serif" font-size="14" lengthAdjust="spacing" textLength="351.1074" x="13" y="527.9364">+gender : String &lt;Optional: male, female, other&gt;</text><text fill="#000000" font-family="sans-serif" font-size="14" lengthAdjust="spacing" textLength="172.252" x="13" y="544.2332">+dob : Date &lt;Optional&gt;</text><text fill="#000000" font-family="sans-serif" font-size="14" lengthAdjust="spacing" textLength="209.542" x="13" y="560.5301">+address : String &lt;Optional&gt;</text><text fill="#000000" font-family="sans-serif" font-size="14" lengthAdjust="spacing" textLength="259.2324" x="13" y="576.827">+medicalHistory : String &lt;Optional&gt;</text><text fill="#000000" font-family="sans-serif" font-size="14" lengthAdjust="spacing" textLength="193.0674" x="13" y="593.1239">+notes : String &lt;Optional&gt;</text><text fill="#000000" font-family="sans-serif" font-size="14" lengthAdjust="spacing" textLength="289.748" x="13" y="609.4207">+createdAt : Timestamp &lt;Default: now&gt;</text><text fill="#000000" font-family="sans-serif" font-size="14" lengthAdjust="spacing" textLength="290.9648" x="13" y="625.7176">+updatedAt : Timestamp &lt;Default: null&gt;</text><text fill="#000000" font-family="sans-serif" font-size="14" lengthAdjust="spacing" textLength="263.4639" x="13" y="642.0145">+_destroy : Boolean &lt;Default: false&gt;</text><line style="stroke:#181818;stroke-width:0.5;" x1="8" x2="369.1074" y1="649.3163" y2="649.3163"/></g><!--class Prediction--><g class="entity" data-entity="Prediction" data-source-line="41" data-uid="ent0004" id="entity_Prediction"><rect fill="#F1F1F1" height="365.6406" rx="2.5" ry="2.5" style="stroke:#181818;stroke-width:0.5;" width="432.834" x="98.14" y="734.3169"/><ellipse cx="275.2557" cy="750.3169" fill="#ADD1B2" rx="11" ry="11" style="stroke:#181818;stroke-width:1;"/><path d="M278.2245,755.9575 Q277.6463,756.2544 277.0057,756.395 Q276.3651,756.5513 275.662,756.5513 Q273.162,756.5513 271.8338,754.9106 Q270.5213,753.2544 270.5213,750.1294 Q270.5213,747.0044 271.8338,745.3481 Q273.162,743.6919 275.662,743.6919 Q276.3651,743.6919 277.0057,743.8481 Q277.662,744.0044 278.2245,744.3013 L278.2245,747.02 Q277.5995,746.4419 277.0057,746.1763 Q276.412,745.895 275.787,745.895 Q274.4432,745.895 273.7557,746.9731 Q273.0682,748.0356 273.0682,750.1294 Q273.0682,752.2231 273.7557,753.3013 Q274.4432,754.3638 275.787,754.3638 Q276.412,754.3638 277.0057,754.0981 Q277.5995,753.8169 278.2245,753.2388 L278.2245,755.9575 Z " fill="#000000"/><text fill="#000000" font-family="sans-serif" font-size="14" lengthAdjust="spacing" textLength="70.1025" x="295.7557" y="755.1636">Prediction</text><line style="stroke:#181818;stroke-width:0.5;" x1="99.14" x2="529.974" y1="766.3169" y2="766.3169"/><text fill="#000000" font-family="sans-serif" font-size="14" lengthAdjust="spacing" textLength="184.5908" x="104.14" y="783.312">+_id : ObjectId &#171;required&#187;</text><text fill="#000000" font-family="sans-serif" font-size="14" lengthAdjust="spacing" textLength="301.8682" x="104.14" y="799.6089">+userId : ObjectId &#171;ref: User._id, required&#187;</text><text fill="#000000" font-family="sans-serif" font-size="14" lengthAdjust="spacing" textLength="336.082" x="104.14" y="815.9057">+patientId : ObjectId &#171;ref: Patient._id, optional&#187;</text><line style="stroke:#181818;stroke-width:1;" x1="99.14" x2="529.974" y1="823.2075" y2="823.2075"/><text fill="#000000" font-family="sans-serif" font-size="14" lengthAdjust="spacing" textLength="239.9346" x="104.14" y="840.2026">+pregnancies : Number &lt;min: 0&gt;</text><text fill="#000000" font-family="sans-serif" font-size="14" lengthAdjust="spacing" textLength="207.792" x="104.14" y="856.4995">+glucose : Number &lt;min: 0&gt;</text><text fill="#000000" font-family="sans-serif" font-size="14" lengthAdjust="spacing" textLength="253.4082" x="104.14" y="872.7964">+bloodPressure : Number &lt;min: 0&gt;</text><text fill="#000000" font-family="sans-serif" font-size="14" lengthAdjust="spacing" textLength="251.3301" x="104.14" y="889.0932">+skinThickness : Number &lt;min: 0&gt;</text><text fill="#000000" font-family="sans-serif" font-size="14" lengthAdjust="spacing" textLength="199.5547" x="104.14" y="905.3901">+insulin : Number &lt;min: 0&gt;</text><text fill="#000000" font-family="sans-serif" font-size="14" lengthAdjust="spacing" textLength="180.3867" x="104.14" y="921.687">+bmi : Number &lt;min: 0&gt;</text><text fill="#000000" font-family="sans-serif" font-size="14" lengthAdjust="spacing" textLength="336.2393" x="104.14" y="937.9839">+diabetesPedigreeFunction : Number &lt;min: 0&gt;</text><text fill="#000000" font-family="sans-serif" font-size="14" lengthAdjust="spacing" textLength="180.0518" x="104.14" y="954.2807">+age : Number &lt;min: 0&gt;</text><line style="stroke:#181818;stroke-width:1;" x1="99.14" x2="529.974" y1="961.5825" y2="961.5825"/><text fill="#000000" font-family="sans-serif" font-size="14" lengthAdjust="spacing" textLength="420.834" x="104.14" y="978.5776">+prediction : Number &#171;enum: 0=No Diabetes, 1=Diabetes&#187;</text><text fill="#000000" font-family="sans-serif" font-size="14" lengthAdjust="spacing" textLength="194.8311" x="104.14" y="994.8745">+probability : Number (0-1)</text><text fill="#000000" font-family="sans-serif" font-size="14" lengthAdjust="spacing" textLength="333.8945" x="104.14" y="1011.1714">+riskLevel : String &#171;enum: Low, Medium, High&#187;</text><text fill="#000000" font-family="sans-serif" font-size="14" lengthAdjust="spacing" textLength="145.7627" x="104.14" y="1027.4682">+modelUsed : String</text><text fill="#000000" font-family="sans-serif" font-size="14" lengthAdjust="spacing" textLength="163.29" x="104.14" y="1043.7651">+modelVersion : String</text><text fill="#000000" font-family="sans-serif" font-size="14" lengthAdjust="spacing" textLength="289.748" x="104.14" y="1060.062">+createdAt : Timestamp &lt;Default: now&gt;</text><text fill="#000000" font-family="sans-serif" font-size="14" lengthAdjust="spacing" textLength="290.9648" x="104.14" y="1076.3589">+updatedAt : Timestamp &lt;Default: null&gt;</text><text fill="#000000" font-family="sans-serif" font-size="14" lengthAdjust="spacing" textLength="263.4639" x="104.14" y="1092.6557">+_destroy : Boolean &lt;Default: false&gt;</text></g><!--class Session--><g class="entity" data-entity="Session" data-source-line="66" data-uid="ent0005" id="entity_Session"><rect fill="#F1F1F1" height="210.9688" rx="2.5" ry="2.5" style="stroke:#181818;stroke-width:0.5;" width="308.0986" x="531.5" y="76.8969"/><ellipse cx="654.5913" cy="92.8969" fill="#ADD1B2" rx="11" ry="11" style="stroke:#181818;stroke-width:1;"/><path d="M657.5601,98.5375 Q656.9819,98.8344 656.3413,98.975 Q655.7007,99.1313 654.9976,99.1313 Q652.4976,99.1313 651.1694,97.4906 Q649.8569,95.8344 649.8569,92.7094 Q649.8569,89.5844 651.1694,87.9281 Q652.4976,86.2719 654.9976,86.2719 Q655.7007,86.2719 656.3413,86.4281 Q656.9976,86.5844 657.5601,86.8813 L657.5601,89.6 Q656.9351,89.0219 656.3413,88.7563 Q655.7476,88.475 655.1226,88.475 Q653.7788,88.475 653.0913,89.5531 Q652.4038,90.6156 652.4038,92.7094 Q652.4038,94.8031 653.0913,95.8813 Q653.7788,96.9438 655.1226,96.9438 Q655.7476,96.9438 656.3413,96.6781 Q656.9351,96.3969 657.5601,95.8188 L657.5601,98.5375 Z " fill="#000000"/><text fill="#000000" font-family="sans-serif" font-size="14" lengthAdjust="spacing" textLength="53.416" x="675.0913" y="97.7436">Session</text><line style="stroke:#181818;stroke-width:0.5;" x1="532.5" x2="838.5986" y1="108.8969" y2="108.8969"/><text fill="#000000" font-family="sans-serif" font-size="14" lengthAdjust="spacing" textLength="173.3252" x="537.5" y="125.892">+_id : String &#171;sessionId&#187;</text><text fill="#000000" font-family="sans-serif" font-size="14" lengthAdjust="spacing" textLength="191.0029" x="537.5" y="142.1889">+expires : Date &#171;required&#187;</text><text fill="#000000" font-family="sans-serif" font-size="14" lengthAdjust="spacing" textLength="296.0986" x="537.5" y="158.4857">+session.cookie.originalMaxAge : Number</text><text fill="#000000" font-family="sans-serif" font-size="14" lengthAdjust="spacing" textLength="216.3096" x="537.5" y="174.7826">+session.cookie.expires : Date</text><text fill="#000000" font-family="sans-serif" font-size="14" lengthAdjust="spacing" textLength="249.0059" x="537.5" y="191.0795">+session.cookie.httpOnly : Boolean</text><text fill="#000000" font-family="sans-serif" font-size="14" lengthAdjust="spacing" textLength="205.1191" x="537.5" y="207.3764">+session.cookie.path : String</text><text fill="#000000" font-family="sans-serif" font-size="14" lengthAdjust="spacing" textLength="178.165" x="537.5" y="223.6732">+session.user._id : String</text><text fill="#000000" font-family="sans-serif" font-size="14" lengthAdjust="spacing" textLength="196.998" x="537.5" y="239.9701">+session.user.email : String</text><text fill="#000000" font-family="sans-serif" font-size="14" lengthAdjust="spacing" textLength="228.6279" x="537.5" y="256.267">+session.user.username : String</text><text fill="#000000" font-family="sans-serif" font-size="14" lengthAdjust="spacing" textLength="185.2129" x="537.5" y="272.5639">+session.user.role : String</text><line style="stroke:#181818;stroke-width:0.5;" x1="532.5" x2="838.5986" y1="279.8656" y2="279.8656"/></g><!--link User to Patient--><g class="link" data-entity-1="User" data-entity-2="Patient" data-source-line="80" data-uid="lnk6" id="link_User_Patient"><path codeLine="80" d="M264.03,320.9169 C254.79,346.0769 247.2388,366.6248 238.0888,391.5348" fill="none" id="User-to-Patient" style="stroke:#181818;stroke-width:1;"/><polygon fill="#181818" points="236.02,397.1669,242.8779,390.098,237.744,392.4735,235.3685,387.3396,236.02,397.1669" style="stroke:#181818;stroke-width:1;"/><polygon fill="#000000" points="254.8259,363.7166,260.7035,356.2397,255.1861,354.2129,254.8259,363.7166" style="stroke:#000000;stroke-width:1;"/><text fill="#000000" font-family="sans-serif" font-size="13" lengthAdjust="spacing" textLength="59.8584" x="265.55" y="363.5238">manages</text><text fill="#000000" font-family="sans-serif" font-size="13" lengthAdjust="spacing" textLength="8.271" x="253.2256" y="340.5175">1</text><text fill="#000000" font-family="sans-serif" font-size="13" lengthAdjust="spacing" textLength="36.5625" x="201.7398" y="386.2757">many</text></g><!--link User to Prediction--><g class="link" data-entity-1="User" data-entity-2="Prediction" data-source-line="81" data-uid="lnk7" id="link_User_Prediction"><path codeLine="81" d="M368.76,320.7269 C376.57,345.8769 383.36,372.1769 387.55,397.4569 C406.45,511.3969 403.38,542.9169 387.55,657.3169 C384.08,682.4069 380.22,702.6549 374.05,728.1749" fill="none" id="User-to-Prediction" style="stroke:#181818;stroke-width:1;"/><polygon fill="#181818" points="372.64,734.0069,378.643,726.1989,373.815,729.1469,370.867,724.3189,372.64,734.0069" style="stroke:#181818;stroke-width:1;"/><polygon fill="#000000" points="406.6149,532.4529,409.4362,523.3704,403.5588,523.4467,406.6149,532.4529" style="stroke:#000000;stroke-width:1;"/><text fill="#000000" font-family="sans-serif" font-size="13" lengthAdjust="spacing" textLength="33.5981" x="415.55" y="531.9538">owns</text><text fill="#000000" font-family="sans-serif" font-size="13" lengthAdjust="spacing" textLength="8.271" x="363.3557" y="340.3177">1</text><text fill="#000000" font-family="sans-serif" font-size="13" lengthAdjust="spacing" textLength="36.5625" x="338.3429" y="723.0344">many</text></g><!--link Patient to Prediction--><g class="link" data-entity-1="Patient" data-entity-2="Prediction" data-source-line="82" data-uid="lnk8" id="link_Patient_Prediction"><path codeLine="82" d="M230.6,657.7669 C238.54,682.2169 245.1373,702.5001 253.4873,728.2201" fill="none" id="Patient-to-Prediction" style="stroke:#181818;stroke-width:1;"/><polygon fill="#181818" points="255.34,733.9269,256.3655,724.1315,253.7961,729.1712,248.7564,726.6018,255.34,733.9269" style="stroke:#181818;stroke-width:1;"/><polygon fill="#000000" points="251.0948,700.6387,251.0954,691.1281,245.5051,692.9441,251.0948,700.6387" style="stroke:#000000;stroke-width:1;"/><text fill="#000000" font-family="sans-serif" font-size="13" lengthAdjust="spacing" textLength="22.9785" x="258.55" y="700.3838">has</text><text fill="#000000" font-family="sans-serif" font-size="13" lengthAdjust="spacing" textLength="8.271" x="224.6881" y="677.3777">1</text><text fill="#000000" font-family="sans-serif" font-size="13" lengthAdjust="spacing" textLength="36.5625" x="216.3347" y="723.5467">many</text></g><!--SRC=[pLPDZzem4BtpAonwQAl2YksX1yGYiGk8I7nfm_QwSk8XSN5irh5XQTN_tWa944A2LfNwmIKeyvx7VlDc7CED03BPZO0A4qwe0T8a4oK3rRydhXz2HCbi0th3OLkBLrokgQOHyQY_2hIoaZqeeJHvD_Wo_3mSvX2-e77SCqPppnfmV2LT_Xr8grPxVuS_ykGE7btoC1kF1myBPpOboTlQdaMUOj3aHusGJ-IPCz8cC-yR-CPXfDFHy6Av1jRjxkEuFouGuM8Y6M3SIlvYeK4Ak3MkkrMQvQ45YCMiaaRmXjMMLeXf0Lg0Q2NEmY1jrCPj60xID0XJlb6wGIYBkCmeFExvXcyIshr2EfMaquSbjSAqYT4MigE4IkQNdgqDLvAAD1g0PAZUPRXD8YhmA4j8dyg4e5CEKnuI-adn2wlH3JLKLoRpDI29zGmY5Zo2sD1edTkqLDjCspMx3aH1K-Gpmw1Mkr8HbbJ4gCBFWudclOKpc2wgV3HFrNwZbPBwEnUGPNjlnnja_uuDYluyr- -lbf8n3IXALRO86FUf6F4OZRchX4bb8Fv_3V4uw3jx7rHwGYVdJFRynsoHDNafARDaobC7xH9UivcIDGIIIf_lLPxQo4CBT718j4ahiuMmlegX8ke9fTWygRJLLPXaIYz2xgzaQeWo39Un5LnMPObuHOHnwW5QP8uo1nfWQ6MgTZcS1kMRFAbngDO9bStIrjrKaNwMha5kxmx_3sNGogCU5zpiJkGFhURjntH0ytWrXWs8ooazLji6cM1c6pN8Y0TXjcAa60Wi- -aMERt-2ZfEjvcB_EjsS0UkUwKNN2n_iH6EKiHfq3bEijSrUZm-JfTYdsJu6r-f5OSRfNd0qTiJ-jhBrRWCUhvo6I8qPZsJ8dVeCXJsNNYk_m5WirQz4ZqVr9VnYw-3IyZPbNygmkDWtDjFf94pTrFvznyuzTiwshnBwX6Lk_hniag6kyIsY4ct79Tl2RML2Ux0lGODAI9_0G00]--></g></svg>